# xmcd CD database file
#
# Track frame offsets:
#	150
#	12743
#	25285
#	39597
#	54195
#	64355
#	75611
#	87412
#	98654
#	109202
#	120048
#	132698
#	145051
#	159712
#	172428
#	183162
#	196023
#	209537
#	223296
#	232726
#
# Disc length: 3247 seconds
#
# Revision: 1
# Processed by: cddbd v1.5.2PL0 Copyright (c) Steve Scherf et al.
# Submitted via: CDex 1.51
#
DISCID=1e0cad14
DTITLE=Various Artist - Ladies Of Country - CD3
DYEAR=2006
DGENRE=Country
TTITLE0=Stand By Your Man - Lynn Anderson
TTITLE1=Withered Roses - Rosemary Clooney
TTITLE2=Draggin' My Chains - Janis Carnes
TTITLE3=Gone At Last - Lynn Anderson
TTITLE4=Seven Lonely Days - Bonnie Lou
TTITLE5=Just Out Of Reach - Patsy Cline
TTITLE6=Ease The Want In Me - Billie Jo Spears
TTITLE7=Turn Around My Darlin' - Ginny Wright
TTITLE8=I Don't Want Your Money I Want Your Time - Kitty Wells
TTITLE9=Heaven's Just A Sin Away - Lynn Anderson
TTITLE10=Just A Closer Walk With Thee - Patsy Cline
TTITLE11=I've Got The Boogie Blues - Charlene Arthur
TTITLE12=Faithless Love - Lynn Anderson
TTITLE13=Cheatins' A Sin - Kitty Wells
TTITLE14=Honky Tonk Angels - Dolly Parton
TTITLE15=You Didn't Think I Would - Miller Sisters
TTITLE16=Tumbling Tumbleweeds - Patti Page
TTITLE17=Two Doors Down - Lynn Anderson
TTITLE18=Girl Left Alone - Dolly Parton
TTITLE19=Stop The World And Let Me Off - Patsy Cline
EXTD=YEAR: 2006
EXTT0=
EXTT1=
EXTT2=
EXTT3=
EXTT4=
EXTT5=
EXTT6=
EXTT7=
EXTT8=
EXTT9=
EXTT10=
EXTT11=
EXTT12=
EXTT13=
EXTT14=
EXTT15=
EXTT16=
EXTT17=
EXTT18=
EXTT19=
PLAYORDER=
